<svg id="a9220b2c-49a5-4d6a-851f-963fc3d58293" data-name="Layer 1" xmlns="http://www.w3.org/2000/svg" viewBox="0 0 48 48"><defs><style>.ff942017-03ea-4f38-98f8-6722ffe0d3c0{fill:#1da1f2;}.e7b9abbc-c334-4081-960d-2aa3497c0c76{fill:#fff;}.a8e21b26-408f-419c-b978-5c2b6cbb0468{fill:none;stroke:#231f20;stroke-miterlimit:10;}</style></defs><title>SocialIcons</title><g id="fc47e127-14ea-40c5-81f8-7f330a88a3e3" data-name="Dark Blue"><path class="ff942017-03ea-4f38-98f8-6722ffe0d3c0" d="M35.9,40.2H11.1A4.1,4.1,0,0,1,7,36.1V11.4a4.1,4.1,0,0,1,4.1-4.1H35.9A4.1,4.1,0,0,1,40,11.4V36.1A4.1,4.1,0,0,1,35.9,40.2Z"/></g><g id="f0bf6eb9-deff-49a4-9596-e14ce01112bf" data-name="Logo — FIXED"><path class="e7b9abbc-c334-4081-960d-2aa3497c0c76" d="M19.7,32.1a11.9,11.9,0,0,0,12-12v-.5a11,11,0,0,0,2.1-2.2,9.4,9.4,0,0,1-2.4.6,3.8,3.8,0,0,0,1.8-2.3,8.2,8.2,0,0,1-2.6,1,4.4,4.4,0,0,0-3.1-1.3,4.2,4.2,0,0,0-4.3,4.2c0,.3.1.7.1,1a12,12,0,0,1-8.7-4.5,5.4,5.4,0,0,0-.5,2.2,4.4,4.4,0,0,0,1.8,3.5,4.1,4.1,0,0,1-1.9-.5h0a4.3,4.3,0,0,0,3.4,4.2H15.5a4.2,4.2,0,0,0,4,3,8.9,8.9,0,0,1-5.3,1.8h-1a12.1,12.1,0,0,0,6.5,1.9"/></g><path class="a8e21b26-408f-419c-b978-5c2b6cbb0468" d="M40.8,3.9H6.9A2.9,2.9,0,0,0,4,6.8V40.7a2.9,2.9,0,0,0,2.9,2.9H40.8a2.9,2.9,0,0,0,2.9-2.9V6.8A2.9,2.9,0,0,0,40.8,3.9Z"/></svg>