<svg id="a40c7f2f-48df-42ed-af50-da9d57e41774" data-name="Layer 1" xmlns="http://www.w3.org/2000/svg" viewBox="0 0 48 48"><defs><style>.e1557378-68f7-4894-aa99-40d4a7d7692c{fill:none;stroke:#231f20;stroke-miterlimit:10;}.afecca28-49d5-41e5-8a62-65b1756841f1{fill:#181616;fill-rule:evenodd;}</style></defs><title>SocialIcons</title><path class="e1557378-68f7-4894-aa99-40d4a7d7692c" d="M40.8,4.2H6.9A2.8,2.8,0,0,0,4,7V41a2.8,2.8,0,0,0,2.9,2.8H40.8A2.8,2.8,0,0,0,43.7,41V7A2.8,2.8,0,0,0,40.8,4.2Z"/><path class="afecca28-49d5-41e5-8a62-65b1756841f1" d="M23.6,7a17.4,17.4,0,0,0-5.5,33.9c.9.1,1.2-.4,1.2-.9V37.1c-4.8,1-5.9-2.4-5.9-2.4a4.1,4.1,0,0,0-1.9-2.5c-1.6-1.1.1-1.1.1-1.1a3.8,3.8,0,0,1,2.7,1.8c1.5,2.7,4.1,1.9,5.1,1.5a3.3,3.3,0,0,1,1.1-2.3c-3.9-.5-8-2-8-8.6a6.8,6.8,0,0,1,1.8-4.7,6.4,6.4,0,0,1,.2-4.6s1.5-.5,4.8,1.8a15.4,15.4,0,0,1,4.3-.6A16.1,16.1,0,0,1,28,16c3.3-2.3,4.7-1.8,4.7-1.8a5.9,5.9,0,0,1,.2,4.6,6.8,6.8,0,0,1,1.8,4.7c0,6.6-4.1,8.1-7.9,8.5A4.4,4.4,0,0,1,28,35.3c0,2.3-.1,4.2-.1,4.7s.3,1,1.2.9A17.4,17.4,0,0,0,23.6,7Z"/></svg>