<svg id="ad9e060f-f557-4c79-ac3d-b88e5a79d900" data-name="Layer 1" xmlns="http://www.w3.org/2000/svg" viewBox="0 0 48 48"><defs><style>.b7a5cb2f-9fdf-4eb6-955f-c0f5d47cace1{fill:#444;fill-rule:evenodd;}.b38be210-60fe-4e68-a490-6bd0f6151dae{fill:none;stroke:#231f20;stroke-miterlimit:10;}</style></defs><title>SocialIcons</title><path class="b7a5cb2f-9fdf-4eb6-955f-c0f5d47cace1" d="M24,7A17,17,0,1,0,41,24,17,17,0,0,0,24,7Zm11.2,7.8a14.1,14.1,0,0,1,3.3,9.1,33.9,33.9,0,0,0-10.1-.5l-.3-.7a13.6,13.6,0,0,0-1-2.1A19,19,0,0,0,35.2,14.8ZM24,9.5a14.2,14.2,0,0,1,9.6,3.7c-.2.3-2.4,3.3-7.6,5.2a75.1,75.1,0,0,0-5.4-8.5A12.7,12.7,0,0,1,24,9.5Zm-6.2,1.4a80.1,80.1,0,0,1,5.4,8.4A53.1,53.1,0,0,1,9.8,21,14.4,14.4,0,0,1,17.8,10.9ZM9.5,24v-.4a53.7,53.7,0,0,0,14.9-2.1L25.6,24H25c-7.5,2.5-11.5,9.1-11.8,9.6A14.4,14.4,0,0,1,9.5,24ZM24,38.5a14.3,14.3,0,0,1-8.9-3c.3-.6,3.2-6.2,11.4-9.1h.1a61.9,61.9,0,0,1,3.1,11A15.6,15.6,0,0,1,24,38.5ZM32.1,36a69.7,69.7,0,0,0-2.8-10.3,23,23,0,0,1,9,.6A14,14,0,0,1,32.1,36Z"/><path class="b38be210-60fe-4e68-a490-6bd0f6151dae" d="M40.8,4.2H6.9A2.8,2.8,0,0,0,4,7V41a2.8,2.8,0,0,0,2.9,2.8H40.8A2.8,2.8,0,0,0,43.7,41V7A2.8,2.8,0,0,0,40.8,4.2Z"/></svg>