<svg id="e1a476e2-c545-4557-8b32-94b36ed0712a" data-name="Layer 1" xmlns="http://www.w3.org/2000/svg" viewBox="0 0 48 48"><defs><style>.a467325f-6d8c-4e12-aa5c-9808092c857a{fill:#231f20;}.bd71dea9-7366-4ccb-8e79-e139fd298239{fill:none;stroke:#231f20;stroke-miterlimit:10;}</style></defs><title>SocialIcons</title><path class="a467325f-6d8c-4e12-aa5c-9808092c857a" d="M24,8A16,16,0,1,0,40,24,16,16,0,0,0,24,8Zm0,29.4A13.4,13.4,0,1,1,37.4,24,13.4,13.4,0,0,1,24,37.4Z"/><path class="a467325f-6d8c-4e12-aa5c-9808092c857a" d="M33.9,20.9h-.4l-9-6a.9.9,0,0,0-1,0l-9,6h-.4v6h.4l9,6.1h1l9-6.1h.4V21Zm-9-4.4L31.5,21l-3,2-3.6-2.5Zm-1.8,0v4L19.5,23l-3-2Zm-7.3,6.1L17.9,24l-2.1,1.4Zm7.3,8.9L16.5,27l3-2,3.6,2.5ZM24,26l-3-2,3-2,3,2Zm.9,5.5v-4L28.5,25l3,2Zm7.3-6.1L30.1,24l2.1-1.4Z"/><path class="bd71dea9-7366-4ccb-8e79-e139fd298239" d="M40.8,3.9H6.9A2.9,2.9,0,0,0,4,6.8V40.7a2.9,2.9,0,0,0,2.9,2.9H40.8a2.9,2.9,0,0,0,2.9-2.9V6.8A2.9,2.9,0,0,0,40.8,3.9Z"/></svg>