<svg id="e43ce1ad-04f1-4058-85ed-f5a96937f31a" data-name="Layer 1" xmlns="http://www.w3.org/2000/svg" viewBox="0 0 48 48"><defs><style>.aa4073ea-b819-4222-b01a-da6947a8be88{fill:#bcbbbb;}.bd6d937a-c15e-4cf6-87bf-06402045f419{fill:#f48023;}.a302c777-ed8d-436b-9b32-bf151b1101b3{fill:none;stroke:#231f20;stroke-miterlimit:10;}</style></defs><title>SocialIcons</title><path class="aa4073ea-b819-4222-b01a-da6947a8be88" d="M33.3,37.2V28.7h2.8V40H10.6V28.7h2.8v8.5Z"/><path class="bd6d937a-c15e-4cf6-87bf-06402045f419" d="M16.6,27.9l13.8,2.9L31,28,17.1,25.1Zm1.8-6.6,12.8,5.9,1.2-2.5-12.8-6ZM21.9,15l10.9,9,1.8-2.1L23.7,12.8ZM29,8.3,26.7,9.9l8.4,11.4,2.3-1.7Zm-12.7,26H30.4V31.5H16.3Z"/><path class="a302c777-ed8d-436b-9b32-bf151b1101b3" d="M40.8,3.9H6.9A2.9,2.9,0,0,0,4,6.8V40.7a2.9,2.9,0,0,0,2.9,2.9H40.8a2.9,2.9,0,0,0,2.9-2.9V6.8A2.9,2.9,0,0,0,40.8,3.9Z"/></svg>