<svg id="a8000000-6afb-4305-99b4-7a08976c7d2f" data-name="Layer 1" xmlns="http://www.w3.org/2000/svg" viewBox="0 0 48 48"><defs><style>.b1bc4edd-eee7-4eb2-8707-c6403d9b2ac9{fill:none;stroke:#231f20;stroke-miterlimit:10;}</style></defs><title>SocialIcons</title><path d="M16.6,13a12.7,12.7,0,0,1,2.8.3,4,4,0,0,1,2.1.9,3.6,3.6,0,0,1,1.4,1.6,5.8,5.8,0,0,1,.5,2.5,5.4,5.4,0,0,1-.7,2.7,5.4,5.4,0,0,1-2.2,1.7,5.2,5.2,0,0,1,2.9,2,5.7,5.7,0,0,1,1,3.4,5.8,5.8,0,0,1-.6,2.8,6.7,6.7,0,0,1-1.7,2A8.2,8.2,0,0,1,19.6,34a12.4,12.4,0,0,1-2.7.3H6.5V13ZM16,21.6a3.2,3.2,0,0,0,2-.6,2,2,0,0,0,.8-1.9,3.7,3.7,0,0,0-.2-1.2,1.9,1.9,0,0,0-.7-.8l-1.1-.4H11.2v5Zm.2,9.1h1.3a2.8,2.8,0,0,0,1.1-.5,2,2,0,0,0,.8-.8,3.2,3.2,0,0,0,.3-1.4,3,3,0,0,0-.9-2.4,4.6,4.6,0,0,0-2.5-.7H11.2v5.9Z"/><path d="M31.1,30.6a3.3,3.3,0,0,0,2.7,1,3.8,3.8,0,0,0,2.2-.7,2.6,2.6,0,0,0,1.2-1.4h3.7a7.1,7.1,0,0,1-2.7,4,8.4,8.4,0,0,1-4.5,1.2,11.4,11.4,0,0,1-3.3-.5,7.4,7.4,0,0,1-2.5-1.7,7.6,7.6,0,0,1-1.6-2.6,11.4,11.4,0,0,1-.5-3.3,11.3,11.3,0,0,1,.5-3.2A7.8,7.8,0,0,1,28,20.8a7.4,7.4,0,0,1,2.5-1.7,7.9,7.9,0,0,1,3.2-.6,7.4,7.4,0,0,1,3.4.7,6.1,6.1,0,0,1,2.4,2.1,7.1,7.1,0,0,1,1.4,2.9,9.6,9.6,0,0,1,.3,3.4H30A3.9,3.9,0,0,0,31.1,30.6ZM36,22.5a3.6,3.6,0,0,0-2.4-.8,4,4,0,0,0-1.7.3,2.4,2.4,0,0,0-1.1.9,2.7,2.7,0,0,0-.6,1A5.2,5.2,0,0,0,30,25h6.9A4.4,4.4,0,0,0,36,22.5Z"/><rect x="29.2" y="14.4" width="8.6" height="2.11"/><path class="b1bc4edd-eee7-4eb2-8707-c6403d9b2ac9" d="M40.8,4.2H6.9A2.8,2.8,0,0,0,4,7V41a2.8,2.8,0,0,0,2.9,2.8H40.8A2.8,2.8,0,0,0,43.7,41V7A2.8,2.8,0,0,0,40.8,4.2Z"/></svg>