<svg id="fcbbe5bc-b5b9-4f26-943a-9dd65d41c5c3" data-name="Layer 1" xmlns="http://www.w3.org/2000/svg" viewBox="0 0 48 48"><defs><style>.b23a401e-611a-401a-8849-58df31537d26{fill:#e70000;}.bff937ed-d716-456c-8acb-afb70c82941c{fill:none;stroke:#231f20;stroke-miterlimit:10;}</style></defs><title>SocialIcons</title><path d="M5 40V5h35v35H5zm8.56-12.627c0 .555-.027.687-.318 1.03l-2.457 2.985v.396h6.974v-.396l-2.456-2.985c-.291-.343-.344-.502-.344-1.03V18.42l6.127 13.364h.714l5.256-13.364v10.644c0 .29 0 .342-.185.528l-1.848 1.796v.396h9.19v-.396l-1.822-1.796c-.184-.186-.21-.238-.21-.528V15.937c0-.291.026-.344.21-.528l1.823-1.797v-.396h-6.471l-4.622 11.542-5.203-11.542h-6.79v.396l2.14 2.64c.239.292.291.37.291.768v10.353z"></path></svg>
