<svg id="eccf34bf-9daf-4219-ad3f-b9d2de13a6b4" data-name="Layer 1" xmlns="http://www.w3.org/2000/svg" viewBox="0 0 48 48"><defs><style>.ebd7c882-d098-4cb0-a6f8-4e9535783dc2{fill:#e3702c;}.a4139a0c-73ba-4938-9beb-4fdf7e7a0cf4{fill:none;stroke:#231f20;stroke-miterlimit:10;}</style></defs><title>SocialIcons</title><g id="e59a255a-a0ed-41d0-b787-e9b23eae231c" data-name="lines &lt;Group&gt;"><path id="b99e927b-a230-4977-9e6d-eaab0cfee47f" data-name="circle" class="ebd7c882-d098-4cb0-a6f8-4e9535783dc2" d="M16.2,35.8a4.1,4.1,0,1,1-8.2,0,4.1,4.1,0,0,1,8.2,0Z"/><path class="ebd7c882-d098-4cb0-a6f8-4e9535783dc2" d="M8,23.6a1.9,1.9,0,0,0,1.7,1.9,13.8,13.8,0,0,1,8.5,4.2,14.1,14.1,0,0,1,4.2,8.5A1.9,1.9,0,0,0,24.3,40h2.1a1.9,1.9,0,0,0,1.9-2.1A20.5,20.5,0,0,0,10.1,19.5a2,2,0,0,0-2.1,2Z"/><path class="ebd7c882-d098-4cb0-a6f8-4e9535783dc2" d="M9.8,14.9A25.2,25.2,0,0,1,33,38.2,1.9,1.9,0,0,0,34.9,40H37a1.9,1.9,0,0,0,1.9-2.1,31.2,31.2,0,0,0-28.8-29,2.1,2.1,0,0,0-2.1,2v2A2,2,0,0,0,9.8,14.9Z"/></g><path class="a4139a0c-73ba-4938-9beb-4fdf7e7a0cf4" d="M40.8,3.9H6.9A2.9,2.9,0,0,0,4,6.8V40.7a2.9,2.9,0,0,0,2.9,2.9H40.8a2.9,2.9,0,0,0,2.9-2.9V6.8A2.9,2.9,0,0,0,40.8,3.9Z"/></svg>