<svg id="ae68f344-48af-43e6-8ec0-46c072863fef" data-name="Layer 1" xmlns="http://www.w3.org/2000/svg" viewBox="0 0 48 48"><defs><style>.f0a525d6-c210-4515-a537-fe13d447b32a{fill:#3b5998;}.bbec1dd1-6c9b-40bd-a529-f8f9d5f89f75{fill:none;stroke:#231f20;stroke-miterlimit:10;}</style></defs><title>SocialIcons</title><path class="f0a525d6-c210-4515-a537-fe13d447b32a" d="M39.1,7H8.9A1.8,1.8,0,0,0,7,8.9H7V39.1A1.8,1.8,0,0,0,8.9,41H25.2V27.9H20.7V22.7h4.5V18.9c0-4.4,2.6-6.8,6.6-6.8l3.9.2v4.6H33c-2.1,0-2.5,1-2.5,2.5v3.3h5.1l-.7,5.2H30.5V41h8.6A1.8,1.8,0,0,0,41,39.1h0V8.9A1.8,1.8,0,0,0,39.1,7Z"/><path class="bbec1dd1-6c9b-40bd-a529-f8f9d5f89f75" d="M40.8,4.2H6.9A2.8,2.8,0,0,0,4,7V41a2.8,2.8,0,0,0,2.9,2.8H40.8A2.8,2.8,0,0,0,43.7,41V7A2.8,2.8,0,0,0,40.8,4.2Z"/></svg>