<svg id="a65a1b8c-b77f-4759-91d7-5a9e1725a8a2" data-name="Layer 1" xmlns="http://www.w3.org/2000/svg" xmlns:xlink="http://www.w3.org/1999/xlink" viewBox="0 0 48 48"><defs><style>.e1ef2737-94e2-448c-8a6d-47442ba01a0d,.e4c629ee-91ef-4eea-8da4-bacdb3ca58ec{fill:none;}.b5c755d9-9efc-49fa-bc0a-7d2a07596637{clip-path:url(#fa080507-3eaa-4411-83dc-8c38b14e7a45);}.fa52be9c-6570-406a-84b3-310bf4f549aa{clip-path:url(#a04b9fc7-f679-49dc-8876-eae8b9c444e3);}.b30818fa-7c70-4a09-a910-6dd6e60be8bd{fill:#fff;}.e1ef2737-94e2-448c-8a6d-47442ba01a0d{stroke:#231f20;stroke-miterlimit:10;}</style><clipPath id="fa080507-3eaa-4411-83dc-8c38b14e7a45"><path class="e4c629ee-91ef-4eea-8da4-bacdb3ca58ec" d="M24.5,6H17.3a13.6,13.6,0,0,0-4.2.8,10.7,10.7,0,0,0-3.2,2,10.7,10.7,0,0,0-2,3.2,13.6,13.6,0,0,0-.8,4.2C7,18.2,7,18.8,7,23.5s0,5.4.1,7.3A14.2,14.2,0,0,0,7.9,35a9.2,9.2,0,0,0,2,3.1,9.3,9.3,0,0,0,3.2,2.1,13.6,13.6,0,0,0,4.2.8H31.8a14.2,14.2,0,0,0,4.2-.8,8.1,8.1,0,0,0,3.1-2.1A8.1,8.1,0,0,0,41.2,35a14.2,14.2,0,0,0,.8-4.2c.1-1.9.1-2.5.1-7.3s0-5.3-.1-7.2a13.6,13.6,0,0,0-.8-4.2,9.3,9.3,0,0,0-2.1-3.2,9.2,9.2,0,0,0-3.1-2,14.2,14.2,0,0,0-4.2-.8Z"/></clipPath><clipPath id="a04b9fc7-f679-49dc-8876-eae8b9c444e3"><rect class="e4c629ee-91ef-4eea-8da4-bacdb3ca58ec" x="2" y="1" width="45.1" height="45.08"/></clipPath></defs><title>SocialIcons</title><g class="b5c755d9-9efc-49fa-bc0a-7d2a07596637"><g class="fa52be9c-6570-406a-84b3-310bf4f549aa"><image width="95" height="94" transform="translate(1.8 1) scale(0.48)" xlink:href="SocialIcons1.png"/></g></g><path class="b30818fa-7c70-4a09-a910-6dd6e60be8bd" d="M24.5,12.1h5.7a6.5,6.5,0,0,1,2.6.5,4.2,4.2,0,0,1,2.6,2.6,8.2,8.2,0,0,1,.5,2.6c.1,1.5.1,1.9.1,5.6s0,4.2-.1,5.7a9,9,0,0,1-.5,2.6,4.2,4.2,0,0,1-2.6,2.6,9,9,0,0,1-2.6.5H18.9a8.2,8.2,0,0,1-2.6-.5,4.2,4.2,0,0,1-2.6-2.6,6.5,6.5,0,0,1-.5-2.6c-.1-1.5-.1-1.9-.1-5.7s0-4.1.1-5.6a6.1,6.1,0,0,1,.5-2.6,4.2,4.2,0,0,1,2.6-2.6,6.1,6.1,0,0,1,2.6-.5h5.6m0-2.5H18.8a9.9,9.9,0,0,0-3.4.6,9.6,9.6,0,0,0-2.5,1.6,9.6,9.6,0,0,0-1.6,2.5,9.9,9.9,0,0,0-.6,3.4c-.1,1.5-.1,2-.1,5.7s0,4.3.1,5.8a9.9,9.9,0,0,0,.6,3.4,7.8,7.8,0,0,0,1.6,2.4,7.9,7.9,0,0,0,2.5,1.7,13.1,13.1,0,0,0,3.4.6H30.3a13.1,13.1,0,0,0,3.4-.6,6.6,6.6,0,0,0,2.4-1.7,6.6,6.6,0,0,0,1.7-2.4,13.1,13.1,0,0,0,.6-3.4c.1-1.5.1-2,.1-5.8s0-4.2-.1-5.7a13.1,13.1,0,0,0-.6-3.4,7.9,7.9,0,0,0-1.7-2.5,7.8,7.8,0,0,0-2.4-1.6,9.9,9.9,0,0,0-3.4-.6Z"/><path class="b30818fa-7c70-4a09-a910-6dd6e60be8bd" d="M24.5,16.4a7.2,7.2,0,1,0,7.2,7.1A7.1,7.1,0,0,0,24.5,16.4Zm0,11.8a4.7,4.7,0,1,1,4.7-4.7A4.7,4.7,0,0,1,24.5,28.2Z"/><circle class="b30818fa-7c70-4a09-a910-6dd6e60be8bd" cx="32" cy="16.1" r="1.7"/><path class="e1ef2737-94e2-448c-8a6d-47442ba01a0d" d="M41.8,3.9H7.9A2.9,2.9,0,0,0,5,6.8V40.7a2.9,2.9,0,0,0,2.9,2.9H41.8a2.9,2.9,0,0,0,2.9-2.9V6.8A2.9,2.9,0,0,0,41.8,3.9Z"/></svg>