<svg id="fcbbe5bc-b5b9-4f26-943a-9dd65d41c5c3" data-name="Layer 1" xmlns="http://www.w3.org/2000/svg" viewBox="0 0 48 48"><defs><style>.b23a401e-611a-401a-8849-58df31537d26{fill:#e70000;}.bff937ed-d716-456c-8acb-afb70c82941c{fill:none;stroke:#231f20;stroke-miterlimit:10;}</style></defs><title>SocialIcons</title><path class="b23a401e-611a-401a-8849-58df31537d26" d="M40.9,14.9a4.4,4.4,0,0,0-3.1-3.2C35,11,24,11,24,11s-11,0-13.8.7a4.4,4.4,0,0,0-3.1,3.2,48.1,48.1,0,0,0-.7,8.5,48.1,48.1,0,0,0,.7,8.5,4.4,4.4,0,0,0,3.1,3.2c2.8.7,13.8.7,13.8.7s11,0,13.8-.7a4.4,4.4,0,0,0,3.1-3.2,48.1,48.1,0,0,0,.7-8.5A48.1,48.1,0,0,0,40.9,14.9ZM20.4,28.6V18.2l9.2,5.2Z"/><path class="bff937ed-d716-456c-8acb-afb70c82941c" d="M40.8,3.9H6.9A2.9,2.9,0,0,0,4,6.8V40.7a2.9,2.9,0,0,0,2.9,2.9H40.8a2.9,2.9,0,0,0,2.9-2.9V6.8A2.9,2.9,0,0,0,40.8,3.9Z"/></svg>