<svg id="a26f9fbf-28a2-4034-9d2f-bc6d1f71aba8" data-name="Layer 1" xmlns="http://www.w3.org/2000/svg" viewBox="0 0 48 48"><defs><style>.f1525198-4f5d-45f3-94e0-4661d5f4418f{fill:#32373c;}.f224e99c-2f48-4811-9a7d-46f8f8b24e0b{fill:none;stroke:#231f20;stroke-miterlimit:10;}</style></defs><title>SocialIcons</title><g id="a3d413d0-3ccc-4900-82f3-6f1d32da4c1d" data-name="W Mark"><path class="f1525198-4f5d-45f3-94e0-4661d5f4418f" d="M24,8a14.4,14.4,0,0,1,6.2,1.3,17.1,17.1,0,0,1,2.7,1.4,17.3,17.3,0,0,1,4.4,4.4,17.1,17.1,0,0,1,1.4,2.7A14.4,14.4,0,0,1,40,24a14.4,14.4,0,0,1-1.3,6.2,17.1,17.1,0,0,1-1.4,2.7,17.3,17.3,0,0,1-4.4,4.4,17.1,17.1,0,0,1-2.7,1.4A14.4,14.4,0,0,1,24,40a14.4,14.4,0,0,1-6.2-1.3,17.1,17.1,0,0,1-2.7-1.4,17.3,17.3,0,0,1-4.4-4.4,17.1,17.1,0,0,1-1.4-2.7A14.4,14.4,0,0,1,8,24a14.4,14.4,0,0,1,1.3-6.2,17.1,17.1,0,0,1,1.4-2.7,17.3,17.3,0,0,1,4.4-4.4,17.1,17.1,0,0,1,2.7-1.4A14.4,14.4,0,0,1,24,8m0-1A17,17,0,1,0,41,24,17,17,0,0,0,24,7Z"/><path class="f1525198-4f5d-45f3-94e0-4661d5f4418f" d="M9.8,24a14.1,14.1,0,0,0,8,12.7L11.1,18.2A14.1,14.1,0,0,0,9.8,24Zm23.8-.7a7.5,7.5,0,0,0-1.2-3.9c-.7-1.2-1.4-2.2-1.4-3.3a2.5,2.5,0,0,1,2.4-2.6h.2A14,14,0,0,0,24,9.8a14.2,14.2,0,0,0-11.8,6.4h4.7c.7-.1.8,1,0,1.1l-1.6.2,5.2,15.3,3.1-9.3-2.2-6-1.5-.2a.6.6,0,1,1,.1-1.1h7.5c.7-.1.8,1,.1,1.1l-1.6.2,5.1,15.2L32.5,28A16,16,0,0,0,33.6,23.3Zm-9.4,1.9L20,37.6a13.4,13.4,0,0,0,4,.6,15,15,0,0,0,4.7-.8.3.3,0,0,0-.1-.2Zm12.2-8a7.1,7.1,0,0,1,.1,1.5,11.6,11.6,0,0,1-1.1,5L31.1,36.2a13.9,13.9,0,0,0,5.3-19Z"/></g><path class="f224e99c-2f48-4811-9a7d-46f8f8b24e0b" d="M40.8,3.9H6.9A2.9,2.9,0,0,0,4,6.8V40.7a2.9,2.9,0,0,0,2.9,2.9H40.8a2.9,2.9,0,0,0,2.9-2.9V6.8A2.9,2.9,0,0,0,40.8,3.9Z"/></svg>