<svg id="e5acbf13-6237-4cf2-ae68-49ec65ed9b6b" data-name="Layer 1" xmlns="http://www.w3.org/2000/svg" viewBox="0 0 48 48"><defs><style>.f34233b2-cc62-41b4-9609-579bc6dcced6{fill:#0077b5;}.b10caada-e504-488d-b518-fa1e44852edf{fill:none;stroke:#231f20;stroke-miterlimit:10;}</style></defs><title>SocialIcons</title><path class="f34233b2-cc62-41b4-9609-579bc6dcced6" d="M39.2,7h-29A2.5,2.5,0,0,0,7.7,9.4V38.5A2.5,2.5,0,0,0,10.2,41h29a2.5,2.5,0,0,0,2.5-2.5V9.4A2.5,2.5,0,0,0,39.2,7ZM17.8,36H12.7V19.7h5.1ZM15.3,17.5a2.9,2.9,0,1,1,2.9-2.9A2.9,2.9,0,0,1,15.3,17.5ZM36.7,36H31.6V28.1c0-1.9,0-4.3-2.6-4.3s-3,2-3,4.1V36H20.9V19.7h4.9V22h0a5.5,5.5,0,0,1,4.8-2.7c5.1,0,6.1,3.4,6.1,7.8Z"/><path class="b10caada-e504-488d-b518-fa1e44852edf" d="M41.8,4.2H7.9A2.8,2.8,0,0,0,5,7V41a2.8,2.8,0,0,0,2.9,2.8H41.8A2.8,2.8,0,0,0,44.7,41V7A2.8,2.8,0,0,0,41.8,4.2Z"/></svg>