<svg xmlns="http://www.w3.org/2000/svg" xmlns:xlink="http://www.w3.org/1999/xlink">

<symbol id="acm" fill-rule="evenodd" clip-rule="evenodd" stroke-linejoin="round" stroke-miterlimit="1.414">
  <rect x="2.49" y="2.45" width="11.06" height="11.06" transform="translate(-3.29 8) rotate(-45)" style="fill:#231f20"/>
  <path d="M12.81,8A4.8,4.8,0,1,1,8,3.18,4.8,4.8,0,0,1,12.81,8Z" style="fill:#fff"/>
  <path d="M12.33,8A4.32,4.32,0,1,1,8,3.66,4.31,4.31,0,0,1,12.33,8Z" style="fill:#231f20"/>
  <path d="M5.5,8.82l-.12.09A.56.56,0,0,1,5.24,9l-.17.07-.23,0a.58.58,0,0,1-.45-.19.62.62,0,0,1-.18-.46.71.71,0,0,1,.09-.38.63.63,0,0,1,.26-.22A1.29,1.29,0,0,1,5,7.72l.53,0h0a.25.25,0,0,0-.13-.24A.91.91,0,0,0,5,7.36a1,1,0,0,0-.27,0l-.29.1H4.38V7l.31-.06a2.09,2.09,0,0,1,.43,0,1.38,1.38,0,0,1,.79.18.62.62,0,0,1,.24.54V9H5.5Zm0-.33V8.06l-.26,0a.73.73,0,0,0-.2.05.25.25,0,0,0-.13.09.25.25,0,0,0,0,.15.22.22,0,0,0,.08.2.37.37,0,0,0,.23.06.35.35,0,0,0,.17,0A.46.46,0,0,0,5.5,8.49Z"
        style="fill:#fff"/>
  <path d="M7.57,9.09A1.41,1.41,0,0,1,7.1,9a1,1,0,0,1-.37-.2,1,1,0,0,1-.24-.33A1.22,1.22,0,0,1,6.4,8a1.28,1.28,0,0,1,.09-.5,1,1,0,0,1,.26-.35A1.08,1.08,0,0,1,7.12,7a1.54,1.54,0,0,1,.43-.06,1.39,1.39,0,0,1,.35,0,1.89,1.89,0,0,1,.35.13v.55H8.16l-.09-.08a.57.57,0,0,0-.13-.08.59.59,0,0,0-.16-.07l-.19,0a.48.48,0,0,0-.39.17A.74.74,0,0,0,7.06,8a.65.65,0,0,0,.15.47.53.53,0,0,0,.39.15.66.66,0,0,0,.21,0A.59.59,0,0,0,8,8.53l.11-.08.08-.07h.09v.55L8.12,9,8,9l-.18,0Z"
        style="fill:#fff"/>
  <path d="M11.07,9V7.74a.61.61,0,0,0,0-.17.21.21,0,0,0-.08-.1.4.4,0,0,0-.17,0l-.15,0a.85.85,0,0,0-.15.09V9H9.83V8a2,2,0,0,0,0-.26.4.4,0,0,0,0-.17.18.18,0,0,0-.09-.1.35.35,0,0,0-.16,0,.45.45,0,0,0-.16,0l-.15.09V9H8.59V7h.64v.23A2.09,2.09,0,0,1,9.53,7a.69.69,0,0,1,.32-.08.58.58,0,0,1,.33.09.54.54,0,0,1,.22.27A3.36,3.36,0,0,1,10.76,7a.68.68,0,0,1,.33-.09.71.71,0,0,1,.26,0,.46.46,0,0,1,.2.14.73.73,0,0,1,.13.23,1.79,1.79,0,0,1,0,.36V9Z"
        style="fill:#fff"/>
</symbol>
</svg>
